 http://img28.imageshack.us/img28/3464/quarantine2008.jpg

Country.......: USA
Genre.........: Horror, Thriller
Date release..: 10.10.2008 [World]
Director......: John Erick Dowdle
Writers.......: John Erick Dowdle, Drew Dowdle
Duration......: 86 min.
More..........: http://www.imdb.com/title/tt1082868
Trailer.......: http://www.imdb.com/video/imdb/vi3133276441
Trailer.......:

Pilot :
A television reporter and her cameraman are trapped inside a building quarantined by the CDC after the outbreak of a mysterious virus which turns humans into bloodthirsty killers. 

Cats :
Jennifer Carpenter   	 ...  	Angela Vidal
Steve Harris 	... 	Scott Percival
Jay Hernandez 	... 	Jake
Johnathon Schaech 	... 	George Fletcher
Columbus Short 	... 	Danny Wilensky
Andrew Fiscella 	... 	James McCreedy
Rade Serbedzija 	... 	Yuri Ivanov (as Rade Sherbedgia)
Greg Germann 	... 	Lawrence
Bernard White 	... 	Bernard
Dania Ramirez 	... 	Sadie
Elaine Kagan 	... 	Wanda Marimon
Marin Hinkle 	... 	Kathy
Joey King 	... 	Briana
Jermaine Jackson 	... 	Nadif
Sharon Ferguson 	... 	Jwahir 

Data Technical :
!!! SAMPLE !!!
Audio.....: Lector Polish
Subtitles.: None
Format                           : AVI
Format/Info                      : Audio Video Interleave
File size                        : 700 MiB
Duration                         : 1h 25mn
Overall bit rate                 : 1 143 Kbps
Writing application              : VirtualDubMod 1.5.10.2 (build 2542/release)
Writing library                  : VirtualDubMod build 2542/release
Video
ID                               : 0
Format                           : MPEG-4 Visual
Format profile                   : Advanced Simple@L5
Format settings, BVOP            : Yes
Format settings, QPel            : No
Format settings, GMC             : No warppoints
Format settings, Matrix          : Default (H.263)
Codec ID                         : XVID
Codec ID/Hint                    : XviD
Duration                         : 1h 25mn
Bit rate                         : 999 Kbps
Width                            : 640 pixels
Height                           : 336 pixels
Display aspect ratio             : 1.905
Frame rate                       : 25.000 fps
Color space                      : YUV
Chroma subsampling               : 4:2:0
Bit depth                        : 8 bits
Scan type                        : Progressive
Bits/(Pixel*Frame)               : 0.186
Stream size                      : 612 MiB (87%)
Writing library                  : XviD 1.1.2 (UTC 2006-11-01)
Audio
ID                               : 1
Format                           : MPEG Audio
Format version                   : Version 1
Format profile                   : Layer 3
Mode                             : Joint stereo
Mode extension                   : MS Stereo
Codec ID                         : 55
Codec ID/Hint                    : MP3
Duration                         : 1h 25mn
Bit rate mode                    : Variable
Bit rate                         : 128 Kbps
Channel(s)                       : 2 channels
Sampling rate                    : 48.0 KHz
Stream size                      : 80.2 MiB (11%)
Alignment                        : Aligned on interleaves
Interleave, duration             : 24 ms (0.60 video frame)
Interleave, preload duration     : 140 ms
Writing library                  : LAME3.90.
Encoding settings                : -m j -V 4 -q 2 -lowpass 17.6 --abr 128

Screen : 
http://img691.imageshack.us/img691/6676/quarantine2008s5.jpg 
http://img13.imageshack.us/img13/7465/quarantine2008s1.jpg 
http://img863.imageshack.us/img863/262/quarantine2008s2.jpg 
http://img708.imageshack.us/img708/884/quarantine2008s3.jpg 
http://img834.imageshack.us/img834/8875/quarantine2008s4.jpg